<svg xmlns="http://www.w3.org/2000/svg" style="display: none;">
  <defs>
    <symbol id="battery-0" viewBox="0 0 24 24" fill="none" stroke="currentColor" stroke-width="2" stroke-linecap="round" stroke-linejoin="round">
      <path stroke="none" d="M0 0h24v24H0z" fill="none" />
      <path d="M6 7h11a2 2 0 0 1 2 2v.5a.5 .5 0 0 0 .5 .5a.5 .5 0 0 1 .5 .5v3a.5 .5 0 0 1 -.5 .5a.5 .5 0 0 0 -.5 .5v.5a2 2 0 0 1 -2 2h-11a2 2 0 0 1 -2 -2v-6a2 2 0 0 1 2 -2" />
    </symbol>

    <symbol id="battery-1" viewBox="0 0 24 24" fill="none" stroke="currentColor" stroke-width="2" stroke-linecap="round" stroke-linejoin="round">
      <path stroke="none" d="M0 0h24v24H0z" fill="none" />
      <path d="M6 7h11a2 2 0 0 1 2 2v.5a.5 .5 0 0 0 .5 .5a.5 .5 0 0 1 .5 .5v3a.5 .5 0 0 1 -.5 .5a.5 .5 0 0 0 -.5 .5v.5a2 2 0 0 1 -2 2h-11a2 2 0 0 1 -2 -2v-6a2 2 0 0 1 2 -2" />
      <path d="M7 10l0 4" />
    </symbol>

    <symbol id="battery-2" viewBox="0 0 24 24" fill="none" stroke="currentColor" stroke-width="2" stroke-linecap="round" stroke-linejoin="round">
      <path stroke="none" d="M0 0h24v24H0z" fill="none" />
      <path d="M6 7h11a2 2 0 0 1 2 2v.5a.5 .5 0 0 0 .5 .5a.5 .5 0 0 1 .5 .5v3a.5 .5 0 0 1 -.5 .5a.5 .5 0 0 0 -.5 .5v.5a2 2 0 0 1 -2 2h-11a2 2 0 0 1 -2 -2v-6a2 2 0 0 1 2 -2" />
      <path d="M7 10l0 4" />
      <path d="M10 10l0 4" />
    </symbol>

    <symbol id="battery-3" viewBox="0 0 24 24" fill="none" stroke="currentColor" stroke-width="2" stroke-linecap="round" stroke-linejoin="round">
      <path stroke="none" d="M0 0h24v24H0z" fill="none" />
      <path d="M6 7h11a2 2 0 0 1 2 2v.5a.5 .5 0 0 0 .5 .5a.5 .5 0 0 1 .5 .5v3a.5 .5 0 0 1 -.5 .5a.5 .5 0 0 0 -.5 .5v.5a2 2 0 0 1 -2 2h-11a2 2 0 0 1 -2 -2v-6a2 2 0 0 1 2 -2" />
      <path d="M7 10l0 4" />
      <path d="M10 10l0 4" />
      <path d="M13 10l0 4" />
    </symbol>

    <symbol id="battery-4" viewBox="0 0 24 24" fill="none" stroke="currentColor" stroke-width="2" stroke-linecap="round" stroke-linejoin="round">
      <path stroke="none" d="M0 0h24v24H0z" fill="none" />
      <path d="M6 7h11a2 2 0 0 1 2 2v.5a.5 .5 0 0 0 .5 .5a.5 .5 0 0 1 .5 .5v3a.5 .5 0 0 1 -.5 .5a.5 .5 0 0 0 -.5 .5v.5a2 2 0 0 1 -2 2h-11a2 2 0 0 1 -2 -2v-6a2 2 0 0 1 2 -2" />
      <path d="M7 10l0 4" />
      <path d="M10 10l0 4" />
      <path d="M13 10l0 4" />
      <path d="M16 10l0 4" />
    </symbol>

    <symbol id="battery-charging-0" viewBox="0 0 24 24" fill="none" stroke="currentColor" stroke-width="2" stroke-linecap="round" stroke-linejoin="round">
      <path stroke="none" d="M0 0h24v24H0z" fill="none" />
      <path d="M16 7h1a2 2 0 0 1 2 2v.5a.5 .5 0 0 0 .5 .5a.5 .5 0 0 1 .5 .5v3a.5 .5 0 0 1 -.5 .5a.5 .5 0 0 0 -.5 .5v.5a2 2 0 0 1 -2 2h-2" />
      <path d="M8 7h-2a2 2 0 0 0 -2 2v6a2 2 0 0 0 2 2h1" />
      <path d="M12 8l-2 4h3l-2 4" />
    </symbol>

    <symbol id="battery-charging-1" viewBox="0 0 24 24" fill="none" stroke="currentColor" stroke-width="2" stroke-linecap="round" stroke-linejoin="round">
      <path stroke="none" d="M0 0h24v24H0z" fill="none" />
      <path d="M16 7h1a2 2 0 0 1 2 2v.5a.5 .5 0 0 0 .5 .5a.5 .5 0 0 1 .5 .5v3a.5 .5 0 0 1 -.5 .5a.5 .5 0 0 0 -.5 .5v.5a2 2 0 0 1 -2 2h-2" />
      <path d="M7 10l0 4" />
      <path d="M8 7h-2a2 2 0 0 0 -2 2v6a2 2 0 0 0 2 2h1" />
      <path d="M12 8l-2 4h3l-2 4" />
    </symbol>

    <symbol id="battery-charging-2" viewBox="0 0 24 24" fill="none" stroke="currentColor" stroke-width="2" stroke-linecap="round" stroke-linejoin="round">
      <path stroke="none" d="M0 0h24v24H0z" fill="none" />
      <path d="M16 7h1a2 2 0 0 1 2 2v.5a.5 .5 0 0 0 .5 .5a.5 .5 0 0 1 .5 .5v3a.5 .5 0 0 1 -.5 .5a.5 .5 0 0 0 -.5 .5v.5a2 2 0 0 1 -2 2h-2" />
      <path d="M7 10l0 4" />
      <path d="M10 10l0 4" />
      <path d="M8 7h-2a2 2 0 0 0 -2 2v6a2 2 0 0 0 2 2h1" />
      <path d="M12 8l-2 4h3l-2 4" />
    </symbol>

    <symbol id="battery-charging-3" viewBox="0 0 24 24" fill="none" stroke="currentColor" stroke-width="2" stroke-linecap="round" stroke-linejoin="round">
      <path stroke="none" d="M0 0h24v24H0z" fill="none" />
      <path d="M16 7h1a2 2 0 0 1 2 2v.5a.5 .5 0 0 0 .5 .5a.5 .5 0 0 1 .5 .5v3a.5 .5 0 0 1 -.5 .5a.5 .5 0 0 0 -.5 .5v.5a2 2 0 0 1 -2 2h-2" />
      <path d="M7 10l0 4" />
      <path d="M10 10l0 4" />
      <path d="M13 10l0 4" />
      <path d="M8 7h-2a2 2 0 0 0 -2 2v6a2 2 0 0 0 2 2h1" />
      <path d="M12 8l-2 4h3l-2 4" />
    </symbol>

    <symbol id="battery-charging-4" viewBox="0 0 24 24" fill="none" stroke="currentColor" stroke-width="2" stroke-linecap="round" stroke-linejoin="round">
      <path stroke="none" d="M0 0h24v24H0z" fill="none" />
      <path d="M16 7h1a2 2 0 0 1 2 2v.5a.5 .5 0 0 0 .5 .5a.5 .5 0 0 1 .5 .5v3a.5 .5 0 0 1 -.5 .5a.5 .5 0 0 0 -.5 .5v.5a2 2 0 0 1 -2 2h-2" />
      <path d="M7 10l0 4" />
      <path d="M10 10l0 4" />
      <path d="M13 10l0 4" />
      <path d="M16 10l0 4" />
      <path d="M8 7h-2a2 2 0 0 0 -2 2v6a2 2 0 0 0 2 2h1" />
      <path d="M12 8l-2 4h3l-2 4" />
    </symbol>

    <symbol id="battery-eco-0" viewBox="0 0 24 24" fill="none" stroke="currentColor" stroke-width="2" stroke-linecap="round" stroke-linejoin="round">
      <path stroke="none" d="M0 0h24v24H0z" fill="none" />
      <path d="M4 9a2 2 0 0 1 2 -2h11a2 2 0 0 1 2 2v.5a.5 .5 0 0 0 .5 .5a.5 .5 0 0 1 .5 .5v3a.5 .5 0 0 1 -.5 .5a.5 .5 0 0 0 -.5 .5v.5a2 2 0 0 1 -2 2h-5.5" />
      <path d="M3 16.143c0 -2.84 2.09 -5.143 4.667 -5.143h2.333v.857c0 2.84 -2.09 5.143 -4.667 5.143h-2.333v-.857" />
      <path d="M3 20v-3" />
    </symbol>

    <symbol id="battery-eco-1" viewBox="0 0 24 24" fill="none" stroke="currentColor" stroke-width="2" stroke-linecap="round" stroke-linejoin="round">
      <path stroke="none" d="M0 0h24v24H0z" fill="none" />
      <path d="M4 9a2 2 0 0 1 2 -2h11a2 2 0 0 1 2 2v.5a.5 .5 0 0 0 .5 .5a.5 .5 0 0 1 .5 .5v3a.5 .5 0 0 1 -.5 .5a.5 .5 0 0 0 -.5 .5v.5a2 2 0 0 1 -2 2h-5.5" />
      <path d="M7 10l0 4" />
      <path d="M3 16.143c0 -2.84 2.09 -5.143 4.667 -5.143h2.333v.857c0 2.84 -2.09 5.143 -4.667 5.143h-2.333v-.857" />
      <path d="M3 20v-3" />
    </symbol>

    <symbol id="battery-eco-2" viewBox="0 0 24 24" fill="none" stroke="currentColor" stroke-width="2" stroke-linecap="round" stroke-linejoin="round">
      <path stroke="none" d="M0 0h24v24H0z" fill="none" />
      <path d="M4 9a2 2 0 0 1 2 -2h11a2 2 0 0 1 2 2v.5a.5 .5 0 0 0 .5 .5a.5 .5 0 0 1 .5 .5v3a.5 .5 0 0 1 -.5 .5a.5 .5 0 0 0 -.5 .5v.5a2 2 0 0 1 -2 2h-5.5" />
      <path d="M7 10l0 4" />
      <path d="M10 10l0 4" />
      <path d="M3 16.143c0 -2.84 2.09 -5.143 4.667 -5.143h2.333v.857c0 2.84 -2.09 5.143 -4.667 5.143h-2.333v-.857" />
      <path d="M3 20v-3" />
    </symbol>

    <symbol id="battery-eco-3" viewBox="0 0 24 24" fill="none" stroke="currentColor" stroke-width="2" stroke-linecap="round" stroke-linejoin="round">
      <path stroke="none" d="M0 0h24v24H0z" fill="none" />
      <path d="M4 9a2 2 0 0 1 2 -2h11a2 2 0 0 1 2 2v.5a.5 .5 0 0 0 .5 .5a.5 .5 0 0 1 .5 .5v3a.5 .5 0 0 1 -.5 .5a.5 .5 0 0 0 -.5 .5v.5a2 2 0 0 1 -2 2h-5.5" />
      <path d="M7 10l0 4" />
      <path d="M10 10l0 4" />
      <path d="M13 10l0 4" />
      <path d="M3 16.143c0 -2.84 2.09 -5.143 4.667 -5.143h2.333v.857c0 2.84 -2.09 5.143 -4.667 5.143h-2.333v-.857" />
      <path d="M3 20v-3" />
    </symbol>

    <symbol id="battery-eco-4" viewBox="0 0 24 24" fill="none" stroke="currentColor" stroke-width="2" stroke-linecap="round" stroke-linejoin="round">
      <path stroke="none" d="M0 0h24v24H0z" fill="none" />
      <path d="M4 9a2 2 0 0 1 2 -2h11a2 2 0 0 1 2 2v.5a.5 .5 0 0 0 .5 .5a.5 .5 0 0 1 .5 .5v3a.5 .5 0 0 1 -.5 .5a.5 .5 0 0 0 -.5 .5v.5a2 2 0 0 1 -2 2h-5.5" />
      <path d="M7 10l0 4" />
      <path d="M10 10l0 4" />
      <path d="M13 10l0 4" />
      <path d="M16 10l0 4" />
      <path d="M3 16.143c0 -2.84 2.09 -5.143 4.667 -5.143h2.333v.857c0 2.84 -2.09 5.143 -4.667 5.143h-2.333v-.857" />
      <path d="M3 20v-3" />
    </symbol>

    <symbol id="battery-warning-0" viewBox="0 0 24 24" fill="none" stroke="currentColor" stroke-width="2" stroke-linecap="round" stroke-linejoin="round">
      <path stroke="none" d="M0 0h24v24H0z" fill="none" />
      <path d="M9 17h8c1.105 0 2 -.895 2 -2v-.5c0 -.276 .224 -.5 .5 -.5s.5 -.224 .5 -.5v-3c0 -.276 -.224 -.5 -.5 -.5s-.5 -.224 -.5 -.5v-.5c0 -1.105 -.895 -2 -2 -2h-11c-1.105 0 -2 .895 -2 2v3" />
      <path d="M5 16v3" />
      <path d="M5 22v.01" />
    </symbol>

    <symbol id="battery-warning-1" viewBox="0 0 24 24" fill="none" stroke="currentColor" stroke-width="2" stroke-linecap="round" stroke-linejoin="round">
      <path stroke="none" d="M0 0h24v24H0z" fill="none" />
      <path d="M9 17h8c1.105 0 2 -.895 2 -2v-.5c0 -.276 .224 -.5 .5 -.5s.5 -.224 .5 -.5v-3c0 -.276 -.224 -.5 -.5 -.5s-.5 -.224 -.5 -.5v-.5c0 -1.105 -.895 -2 -2 -2h-11c-1.105 0 -2 .895 -2 2v3" />
      <path d="M7 10l0 4" />
      <path d="M5 16v3" />
      <path d="M5 22v.01" />
    </symbol>

    <symbol id="battery-warning-2" viewBox="0 0 24 24" fill="none" stroke="currentColor" stroke-width="2" stroke-linecap="round" stroke-linejoin="round">
      <path stroke="none" d="M0 0h24v24H0z" fill="none" />
      <path d="M9 17h8c1.105 0 2 -.895 2 -2v-.5c0 -.276 .224 -.5 .5 -.5s.5 -.224 .5 -.5v-3c0 -.276 -.224 -.5 -.5 -.5s-.5 -.224 -.5 -.5v-.5c0 -1.105 -.895 -2 -2 -2h-11c-1.105 0 -2 .895 -2 2v3" />
      <path d="M7 10l0 4" />
      <path d="M10 10l0 4" />
      <path d="M5 16v3" />
      <path d="M5 22v.01" />
    </symbol>

    <symbol id="battery-warning-3" viewBox="0 0 24 24" fill="none" stroke="currentColor" stroke-width="2" stroke-linecap="round" stroke-linejoin="round">
      <path stroke="none" d="M0 0h24v24H0z" fill="none" />
      <path d="M9 17h8c1.105 0 2 -.895 2 -2v-.5c0 -.276 .224 -.5 .5 -.5s.5 -.224 .5 -.5v-3c0 -.276 -.224 -.5 -.5 -.5s-.5 -.224 -.5 -.5v-.5c0 -1.105 -.895 -2 -2 -2h-11c-1.105 0 -2 .895 -2 2v3" />
      <path d="M7 10l0 4" />
      <path d="M10 10l0 4" />
      <path d="M13 10l0 4" />
      <path d="M5 16v3" />
      <path d="M5 22v.01" />
    </symbol>

    <symbol id="battery-warning-4" viewBox="0 0 24 24" fill="none" stroke="currentColor" stroke-width="2" stroke-linecap="round" stroke-linejoin="round">
      <path stroke="none" d="M0 0h24v24H0z" fill="none" />
      <path d="M9 17h8c1.105 0 2 -.895 2 -2v-.5c0 -.276 .224 -.5 .5 -.5s.5 -.224 .5 -.5v-3c0 -.276 -.224 -.5 -.5 -.5s-.5 -.224 -.5 -.5v-.5c0 -1.105 -.895 -2 -2 -2h-11c-1.105 0 -2 .895 -2 2v3" />
      <path d="M7 10l0 4" />
      <path d="M10 10l0 4" />
      <path d="M13 10l0 4" />
      <path d="M16 10l0 4" />
      <path d="M5 16v3" />
      <path d="M5 22v.01" />
    </symbol>
  </defs>
</svg>
